<svg xmlns="http://www.w3.org/2000/svg" xmlns:xlink="http://www.w3.org/1999/xlink" width="572" zoomAndPan="magnify" viewBox="0 0 428.88 332.250003" height="443" preserveAspectRatio="xMidYMid meet" version="1.0"><defs><filter x="0%" y="0%" width="100%" height="100%" id="689116c507"><feColorMatrix values="0 0 0 0 1 0 0 0 0 1 0 0 0 0 1 0 0 0 1 0" color-interpolation-filters="sRGB"/></filter><g/><clipPath id="f0291b4b95"><path d="M 0.421875 0 L 428.335938 0 L 428.335938 331.5 L 0.421875 331.5 Z M 0.421875 0 " clip-rule="nonzero"/></clipPath><mask id="dc10890e7b"><g filter="url(#689116c507)"><rect x="-42.888" width="514.656" fill="#000000" y="-33.225" height="398.700004" fill-opacity="0.45"/></g></mask><clipPath id="d6b584f140"><rect x="0" width="300" y="0" height="13"/></clipPath><mask id="f1a77aa060"><g filter="url(#689116c507)"><rect x="-42.888" width="514.656" fill="#000000" y="-33.225" height="398.700004" fill-opacity="0.45"/></g></mask><clipPath id="de5540b2bb"><rect x="0" width="300" y="0" height="13"/></clipPath><mask id="f7080fdd01"><g filter="url(#689116c507)"><rect x="-42.888" width="514.656" fill="#000000" y="-33.225" height="398.700004" fill-opacity="0.45"/></g></mask><clipPath id="1215ad2860"><rect x="0" width="289" y="0" height="13"/></clipPath><mask id="a39d65be7e"><g filter="url(#689116c507)"><rect x="-42.888" width="514.656" fill="#000000" y="-33.225" height="398.700004" fill-opacity="0.45"/></g></mask><clipPath id="b815a45ec8"><rect x="0" width="277" y="0" height="13"/></clipPath><mask id="7d62ead9d6"><g filter="url(#689116c507)"><rect x="-42.888" width="514.656" fill="#000000" y="-33.225" height="398.700004" fill-opacity="0.45"/></g></mask><clipPath id="68252715dc"><rect x="0" width="254" y="0" height="13"/></clipPath></defs><g clip-path="url(#f0291b4b95)"><path fill="#ffffff" d="M 0.421875 0 L 428.457031 0 L 428.457031 331.5 L 0.421875 331.5 Z M 0.421875 0 " fill-opacity="1" fill-rule="nonzero"/></g><g mask="url(#dc10890e7b)"><g transform="matrix(1, 0, 0, 1, 63, 114)"><g clip-path="url(#d6b584f140)"><path stroke-linecap="butt" transform="matrix(0.748311, 0, 0, 0.748311, 6.267698, 4.981425)" fill="none" stroke-linejoin="miter" d="M 0.00244939 1.998017 L 383.997524 1.998017 " stroke="#000000" stroke-width="4" stroke-opacity="1" stroke-miterlimit="4"/></g></g></g><g mask="url(#f1a77aa060)"><g transform="matrix(1, 0, 0, 1, 75, 138)"><g clip-path="url(#de5540b2bb)"><path stroke-linecap="butt" transform="matrix(0.748311, 0, 0, 0.748311, 6.240671, 4.92737)" fill="none" stroke-linejoin="miter" d="M 0.00202664 2.002391 L 384.002321 2.002391 " stroke="#000000" stroke-width="4" stroke-opacity="1" stroke-miterlimit="4"/></g></g></g><g mask="url(#f7080fdd01)"><g transform="matrix(1, 0, 0, 1, 99, 162)"><g clip-path="url(#1215ad2860)"><path stroke-linecap="butt" transform="matrix(0.748311, 0, 0, 0.748311, 6.186616, 4.873316)" fill="none" stroke-linejoin="miter" d="M 0.00118114 2.001546 L 368.007118 2.001546 " stroke="#000000" stroke-width="4" stroke-opacity="1" stroke-miterlimit="4"/></g></g></g><g mask="url(#a39d65be7e)"><g transform="matrix(1, 0, 0, 1, 123, 186)"><g clip-path="url(#b815a45ec8)"><path stroke-linecap="butt" transform="matrix(0.748311, 0, 0, 0.748311, 6.132561, 4.819261)" fill="none" stroke-linejoin="miter" d="M 0.000335647 2.0007 L 352.006695 2.0007 " stroke="#000000" stroke-width="4" stroke-opacity="1" stroke-miterlimit="4"/></g></g></g><g mask="url(#7d62ead9d6)"><g transform="matrix(1, 0, 0, 1, 170, 210)"><g clip-path="url(#68252715dc)"><path stroke-linecap="butt" transform="matrix(0.748311, 0, 0, 0.748311, 7.024452, 4.765206)" fill="none" stroke-linejoin="miter" d="M -0.00135534 1.999855 L 320.00585 1.999855 " stroke="#000000" stroke-width="4" stroke-opacity="1" stroke-miterlimit="4"/></g></g></g><g fill="#000000" fill-opacity="1"><g transform="translate(202.502096, 229.232522)"><g><path d="M 8.28125 25.234375 C 13.082031 24.972656 17.171875 23.945312 20.546875 22.15625 C 23.929688 20.375 26.726562 18.019531 28.9375 15.09375 C 31.144531 12.175781 32.800781 8.769531 33.90625 4.875 C 35.007812 0.976562 35.722656 -3.242188 36.046875 -7.796875 C 36.242188 -10.710938 36.359375 -13.289062 36.390625 -15.53125 C 36.421875 -17.78125 36.382812 -19.828125 36.28125 -21.671875 C 36.1875 -23.523438 36.070312 -25.296875 35.9375 -26.984375 C 35.8125 -28.671875 35.679688 -30.421875 35.546875 -32.234375 C 35.421875 -34.054688 35.3125 -36.023438 35.21875 -38.140625 C 35.125 -40.253906 35.078125 -42.675781 35.078125 -45.40625 C 31.953125 -36.238281 29.023438 -28.863281 26.296875 -23.28125 C 23.578125 -17.695312 21.03125 -13.472656 18.65625 -10.609375 C 16.28125 -7.753906 14.132812 -6.035156 12.21875 -5.453125 C 10.3125 -4.867188 8.640625 -4.984375 7.203125 -5.796875 C 5.773438 -6.609375 4.609375 -7.9375 3.703125 -9.78125 C 2.796875 -11.632812 2.175781 -13.535156 1.84375 -15.484375 C 1.976562 -18.734375 2.597656 -22.320312 3.703125 -26.25 C 4.804688 -30.1875 6.265625 -34.050781 8.078125 -37.84375 C 9.898438 -41.644531 12.015625 -45.1875 14.421875 -48.46875 C 16.828125 -51.75 19.425781 -54.363281 22.21875 -56.3125 C 25.007812 -58.257812 27.878906 -59.363281 30.828125 -59.625 C 33.785156 -59.882812 36.757812 -58.878906 39.75 -56.609375 C 39.8125 -56.671875 39.890625 -55.953125 39.984375 -54.453125 C 40.085938 -52.960938 40.21875 -50.953125 40.375 -48.421875 C 40.539062 -45.890625 40.703125 -42.953125 40.859375 -39.609375 C 41.023438 -36.265625 41.207031 -32.769531 41.40625 -29.125 C 41.601562 -25.488281 41.78125 -21.851562 41.9375 -18.21875 C 42.101562 -14.582031 42.285156 -11.207031 42.484375 -8.09375 C 42.546875 -2.050781 41.632812 3.5 39.75 8.5625 C 37.863281 13.632812 35.34375 17.921875 32.1875 21.421875 C 29.039062 24.929688 25.4375 27.5 21.375 29.125 C 17.320312 30.75 13.148438 31.140625 8.859375 30.296875 C 8.671875 30.296875 8.363281 30.164062 7.9375 29.90625 C 7.519531 29.644531 7.195312 29.285156 6.96875 28.828125 C 6.738281 28.378906 6.6875 27.847656 6.8125 27.234375 C 6.945312 26.617188 7.4375 25.953125 8.28125 25.234375 Z M 7.015625 -15.390625 C 7.734375 -13.054688 8.675781 -11.90625 9.84375 -11.9375 C 11.007812 -11.96875 12.320312 -12.8125 13.78125 -14.46875 C 15.25 -16.125 16.789062 -18.378906 18.40625 -21.234375 C 20.03125 -24.097656 21.671875 -27.234375 23.328125 -30.640625 C 24.984375 -34.046875 26.59375 -37.519531 28.15625 -41.0625 C 29.71875 -44.601562 31.179688 -47.867188 32.546875 -50.859375 C 32.546875 -51.640625 32.363281 -52.367188 32 -53.046875 C 31.644531 -53.734375 30.851562 -53.945312 29.625 -53.6875 C 27.601562 -53.289062 25.632812 -52.296875 23.71875 -50.703125 C 21.800781 -49.117188 20 -47.203125 18.3125 -44.953125 C 16.625 -42.710938 15.082031 -40.242188 13.6875 -37.546875 C 12.289062 -34.859375 11.101562 -32.164062 10.125 -29.46875 C 9.15625 -26.769531 8.394531 -24.1875 7.84375 -21.71875 C 7.289062 -19.257812 7.015625 -17.148438 7.015625 -15.390625 Z M 7.015625 -15.390625 "/></g></g></g><g fill="#000000" fill-opacity="1"><g transform="translate(106.718315, 161.081603)"><g><path d="M 8.28125 25.234375 C 13.082031 24.972656 17.171875 23.945312 20.546875 22.15625 C 23.929688 20.375 26.726562 18.019531 28.9375 15.09375 C 31.144531 12.175781 32.800781 8.769531 33.90625 4.875 C 35.007812 0.976562 35.722656 -3.242188 36.046875 -7.796875 C 36.242188 -10.710938 36.359375 -13.289062 36.390625 -15.53125 C 36.421875 -17.78125 36.382812 -19.828125 36.28125 -21.671875 C 36.1875 -23.523438 36.070312 -25.296875 35.9375 -26.984375 C 35.8125 -28.671875 35.679688 -30.421875 35.546875 -32.234375 C 35.421875 -34.054688 35.3125 -36.023438 35.21875 -38.140625 C 35.125 -40.253906 35.078125 -42.675781 35.078125 -45.40625 C 31.953125 -36.238281 29.023438 -28.863281 26.296875 -23.28125 C 23.578125 -17.695312 21.03125 -13.472656 18.65625 -10.609375 C 16.28125 -7.753906 14.132812 -6.035156 12.21875 -5.453125 C 10.3125 -4.867188 8.640625 -4.984375 7.203125 -5.796875 C 5.773438 -6.609375 4.609375 -7.9375 3.703125 -9.78125 C 2.796875 -11.632812 2.175781 -13.535156 1.84375 -15.484375 C 1.976562 -18.734375 2.597656 -22.320312 3.703125 -26.25 C 4.804688 -30.1875 6.265625 -34.050781 8.078125 -37.84375 C 9.898438 -41.644531 12.015625 -45.1875 14.421875 -48.46875 C 16.828125 -51.75 19.425781 -54.363281 22.21875 -56.3125 C 25.007812 -58.257812 27.878906 -59.363281 30.828125 -59.625 C 33.785156 -59.882812 36.757812 -58.878906 39.75 -56.609375 C 39.8125 -56.671875 39.890625 -55.953125 39.984375 -54.453125 C 40.085938 -52.960938 40.21875 -50.953125 40.375 -48.421875 C 40.539062 -45.890625 40.703125 -42.953125 40.859375 -39.609375 C 41.023438 -36.265625 41.207031 -32.769531 41.40625 -29.125 C 41.601562 -25.488281 41.78125 -21.851562 41.9375 -18.21875 C 42.101562 -14.582031 42.285156 -11.207031 42.484375 -8.09375 C 42.546875 -2.050781 41.632812 3.5 39.75 8.5625 C 37.863281 13.632812 35.34375 17.921875 32.1875 21.421875 C 29.039062 24.929688 25.4375 27.5 21.375 29.125 C 17.320312 30.75 13.148438 31.140625 8.859375 30.296875 C 8.671875 30.296875 8.363281 30.164062 7.9375 29.90625 C 7.519531 29.644531 7.195312 29.285156 6.96875 28.828125 C 6.738281 28.378906 6.6875 27.847656 6.8125 27.234375 C 6.945312 26.617188 7.4375 25.953125 8.28125 25.234375 Z M 7.015625 -15.390625 C 7.734375 -13.054688 8.675781 -11.90625 9.84375 -11.9375 C 11.007812 -11.96875 12.320312 -12.8125 13.78125 -14.46875 C 15.25 -16.125 16.789062 -18.378906 18.40625 -21.234375 C 20.03125 -24.097656 21.671875 -27.234375 23.328125 -30.640625 C 24.984375 -34.046875 26.59375 -37.519531 28.15625 -41.0625 C 29.71875 -44.601562 31.179688 -47.867188 32.546875 -50.859375 C 32.546875 -51.640625 32.363281 -52.367188 32 -53.046875 C 31.644531 -53.734375 30.851562 -53.945312 29.625 -53.6875 C 27.601562 -53.289062 25.632812 -52.296875 23.71875 -50.703125 C 21.800781 -49.117188 20 -47.203125 18.3125 -44.953125 C 16.625 -42.710938 15.082031 -40.242188 13.6875 -37.546875 C 12.289062 -34.859375 11.101562 -32.164062 10.125 -29.46875 C 9.15625 -26.769531 8.394531 -24.1875 7.84375 -21.71875 C 7.289062 -19.257812 7.015625 -17.148438 7.015625 -15.390625 Z M 7.015625 -15.390625 "/></g></g></g><g fill="#000000" fill-opacity="1"><g transform="translate(251.095527, 139.27603)"><g><path d="M 12.484375 -0.34375 C 12.160156 -0.820312 11.957031 -1.445312 11.875 -2.21875 C 11.800781 -2.988281 11.757812 -3.800781 11.75 -4.65625 C 11.738281 -5.507812 11.738281 -6.347656 11.75 -7.171875 C 11.757812 -8.003906 11.695312 -8.71875 11.5625 -9.3125 C 10.488281 -6.96875 9.476562 -5.140625 8.53125 -3.828125 C 7.59375 -2.523438 6.734375 -1.59375 5.953125 -1.03125 C 5.171875 -0.476562 4.457031 -0.226562 3.8125 -0.28125 C 3.175781 -0.34375 2.632812 -0.570312 2.1875 -0.96875 C 1.75 -1.363281 1.40625 -1.851562 1.15625 -2.4375 C 0.90625 -3.019531 0.769531 -3.570312 0.75 -4.09375 C 0.59375 -4.957031 0.585938 -5.992188 0.734375 -7.203125 C 0.878906 -8.421875 1.140625 -9.675781 1.515625 -10.96875 C 1.890625 -12.269531 2.363281 -13.539062 2.9375 -14.78125 C 3.519531 -16.019531 4.179688 -17.09375 4.921875 -18 C 5.660156 -18.914062 6.453125 -19.59375 7.296875 -20.03125 C 8.140625 -20.476562 9.015625 -20.550781 9.921875 -20.25 C 10.378906 -20.300781 10.757812 -20.285156 11.0625 -20.203125 C 11.375 -20.128906 11.628906 -19.96875 11.828125 -19.71875 C 12.035156 -19.46875 12.179688 -19.117188 12.265625 -18.671875 C 12.359375 -18.222656 12.429688 -17.660156 12.484375 -16.984375 C 12.429688 -14.773438 12.488281 -12.894531 12.65625 -11.34375 C 12.832031 -9.800781 13.035156 -8.4375 13.265625 -7.25 C 13.492188 -6.070312 13.710938 -5.003906 13.921875 -4.046875 C 14.140625 -3.097656 14.273438 -2.113281 14.328125 -1.09375 C 14.328125 -0.726562 14.234375 -0.445312 14.046875 -0.25 C 13.867188 -0.0625 13.664062 0.0546875 13.4375 0.109375 C 13.207031 0.171875 12.992188 0.15625 12.796875 0.0625 C 12.609375 -0.0195312 12.503906 -0.15625 12.484375 -0.34375 Z M 10.5 -17.5625 C 9.957031 -18.289062 9.367188 -18.597656 8.734375 -18.484375 C 8.097656 -18.367188 7.46875 -17.972656 6.84375 -17.296875 C 6.21875 -16.628906 5.617188 -15.753906 5.046875 -14.671875 C 4.472656 -13.597656 3.984375 -12.445312 3.578125 -11.21875 C 3.171875 -9.988281 2.867188 -8.765625 2.671875 -7.546875 C 2.484375 -6.335938 2.445312 -5.265625 2.5625 -4.328125 C 2.875 -3.304688 3.257812 -2.691406 3.71875 -2.484375 C 4.175781 -2.285156 4.664062 -2.359375 5.1875 -2.703125 C 5.707031 -3.054688 6.238281 -3.617188 6.78125 -4.390625 C 7.332031 -5.171875 7.859375 -6.007812 8.359375 -6.90625 C 8.859375 -7.800781 9.304688 -8.695312 9.703125 -9.59375 C 10.097656 -10.5 10.421875 -11.257812 10.671875 -11.875 Z M 10.5 -17.5625 "/></g></g></g><g fill="#000000" fill-opacity="1"><g transform="translate(266.097368, 139.27603)"><g><path d="M 0.6875 -20.328125 C 0.707031 -20.554688 0.796875 -20.738281 0.953125 -20.875 C 1.109375 -21.007812 1.289062 -21.09375 1.5 -21.125 C 1.707031 -21.15625 1.910156 -21.128906 2.109375 -21.046875 C 2.316406 -20.972656 2.488281 -20.859375 2.625 -20.703125 L 2.53125 -7.0625 C 2.957031 -8.695312 3.347656 -10.316406 3.703125 -11.921875 C 4.054688 -13.523438 4.492188 -14.976562 5.015625 -16.28125 C 5.535156 -17.59375 6.191406 -18.671875 6.984375 -19.515625 C 7.785156 -20.367188 8.84375 -20.851562 10.15625 -20.96875 C 10.863281 -21.039062 11.476562 -20.832031 12 -20.34375 C 12.519531 -19.851562 12.96875 -19.1875 13.34375 -18.34375 C 13.726562 -17.5 14.046875 -16.515625 14.296875 -15.390625 C 14.546875 -14.265625 14.742188 -13.09375 14.890625 -11.875 C 15.035156 -10.664062 15.140625 -9.445312 15.203125 -8.21875 C 15.273438 -6.988281 15.320312 -5.847656 15.34375 -4.796875 C 15.363281 -3.753906 15.367188 -2.835938 15.359375 -2.046875 C 15.347656 -1.253906 15.332031 -0.675781 15.3125 -0.3125 C 15.15625 0.0703125 14.875 0.328125 14.46875 0.453125 C 14.070312 0.578125 13.71875 0.414062 13.40625 -0.03125 C 13.382812 -0.46875 13.375 -1.210938 13.375 -2.265625 C 13.375 -3.328125 13.351562 -4.539062 13.3125 -5.90625 C 13.28125 -7.269531 13.210938 -8.691406 13.109375 -10.171875 C 13.003906 -11.660156 12.832031 -13.035156 12.59375 -14.296875 C 12.363281 -15.566406 12.035156 -16.625 11.609375 -17.46875 C 11.191406 -18.320312 10.65625 -18.804688 10 -18.921875 C 9.425781 -19.015625 8.867188 -18.707031 8.328125 -18 C 7.796875 -17.300781 7.285156 -16.367188 6.796875 -15.203125 C 6.316406 -14.046875 5.863281 -12.738281 5.4375 -11.28125 C 5.019531 -9.832031 4.644531 -8.398438 4.3125 -6.984375 C 3.976562 -5.578125 3.695312 -4.28125 3.46875 -3.09375 C 3.25 -1.914062 3.101562 -1.007812 3.03125 -0.375 C 2.96875 -0.195312 2.832031 -0.0507812 2.625 0.0625 C 2.414062 0.175781 2.191406 0.238281 1.953125 0.25 C 1.722656 0.257812 1.488281 0.21875 1.25 0.125 C 1.007812 0.0390625 0.832031 -0.125 0.71875 -0.375 Z M 0.6875 -20.328125 "/></g></g></g><g fill="#000000" fill-opacity="1"><g transform="translate(281.985681, 139.27603)"><g><path d="M 10.75 -6.546875 C 10.5 -5.972656 10.117188 -5.3125 9.609375 -4.5625 C 9.109375 -3.8125 8.53125 -3.109375 7.875 -2.453125 C 7.21875 -1.796875 6.492188 -1.234375 5.703125 -0.765625 C 4.921875 -0.296875 4.113281 -0.0625 3.28125 -0.0625 C 2.914062 -0.0625 2.625 -0.109375 2.40625 -0.203125 C 2.1875 -0.296875 1.988281 -0.425781 1.8125 -0.59375 C 1.644531 -0.769531 1.492188 -0.984375 1.359375 -1.234375 C 1.222656 -1.484375 1.054688 -1.765625 0.859375 -2.078125 C 0.648438 -3.210938 0.539062 -4.472656 0.53125 -5.859375 C 0.519531 -7.253906 0.632812 -8.65625 0.875 -10.0625 C 1.113281 -11.46875 1.472656 -12.8125 1.953125 -14.09375 C 2.441406 -15.382812 3.078125 -16.484375 3.859375 -17.390625 C 4.648438 -18.296875 5.597656 -18.945312 6.703125 -19.34375 C 7.804688 -19.75 9.082031 -19.78125 10.53125 -19.4375 C 10.675781 -20.875 10.691406 -22.3125 10.578125 -23.75 C 10.460938 -25.195312 10.367188 -26.703125 10.296875 -28.265625 C 10.296875 -28.492188 10.394531 -28.660156 10.59375 -28.765625 C 10.800781 -28.867188 11.035156 -28.9375 11.296875 -28.96875 C 11.566406 -29 11.816406 -29.003906 12.046875 -28.984375 C 12.285156 -28.960938 12.441406 -28.914062 12.515625 -28.84375 C 12.492188 -26.800781 12.476562 -24.925781 12.46875 -23.21875 C 12.457031 -21.519531 12.453125 -19.910156 12.453125 -18.390625 C 12.453125 -16.878906 12.453125 -15.421875 12.453125 -14.015625 C 12.453125 -12.609375 12.457031 -11.164062 12.46875 -9.6875 C 12.476562 -8.207031 12.488281 -6.648438 12.5 -5.015625 C 12.507812 -3.378906 12.515625 -1.582031 12.515625 0.375 C 12.628906 0.738281 12.597656 1.046875 12.421875 1.296875 C 12.253906 1.546875 12.046875 1.703125 11.796875 1.765625 C 11.546875 1.835938 11.289062 1.804688 11.03125 1.671875 C 10.769531 1.535156 10.601562 1.273438 10.53125 0.890625 Z M 9.109375 -17.5625 C 8.242188 -17.695312 7.429688 -17.460938 6.671875 -16.859375 C 5.910156 -16.253906 5.234375 -15.4375 4.640625 -14.40625 C 4.046875 -13.375 3.554688 -12.210938 3.171875 -10.921875 C 2.785156 -9.640625 2.539062 -8.398438 2.4375 -7.203125 C 2.332031 -6.015625 2.382812 -4.941406 2.59375 -3.984375 C 2.800781 -3.035156 3.195312 -2.378906 3.78125 -2.015625 C 4.351562 -2.015625 4.910156 -2.210938 5.453125 -2.609375 C 6.003906 -3.003906 6.519531 -3.507812 7 -4.125 C 7.488281 -4.738281 7.941406 -5.425781 8.359375 -6.1875 C 8.785156 -6.945312 9.15625 -7.691406 9.46875 -8.421875 C 9.789062 -9.148438 10.035156 -9.816406 10.203125 -10.421875 C 10.378906 -11.023438 10.46875 -11.484375 10.46875 -11.796875 C 10.46875 -12.046875 10.46875 -12.488281 10.46875 -13.125 C 10.46875 -13.757812 10.425781 -14.40625 10.34375 -15.0625 C 10.269531 -15.726562 10.132812 -16.3125 9.9375 -16.8125 C 9.75 -17.3125 9.472656 -17.5625 9.109375 -17.5625 Z M 9.109375 -17.5625 "/></g></g></g><g fill="#000000" fill-opacity="1"><g transform="translate(295.521433, 139.27603)"><g/></g></g><g fill="#000000" fill-opacity="1"><g transform="translate(312.978121, 139.27603)"><g><path d="M 2.453125 -16.203125 L -0.6875 -15.140625 C -0.9375 -15.210938 -1.144531 -15.335938 -1.3125 -15.515625 C -1.476562 -15.703125 -1.59375 -15.894531 -1.65625 -16.09375 C -1.726562 -16.300781 -1.75 -16.492188 -1.71875 -16.671875 C -1.6875 -16.859375 -1.59375 -16.992188 -1.4375 -17.078125 L 2.453125 -18.546875 L 2.390625 -28.203125 C 2.453125 -28.492188 2.597656 -28.707031 2.828125 -28.84375 C 3.054688 -28.988281 3.289062 -29.050781 3.53125 -29.03125 C 3.769531 -29.019531 3.988281 -28.941406 4.1875 -28.796875 C 4.394531 -28.648438 4.535156 -28.460938 4.609375 -28.234375 C 4.554688 -27.535156 4.519531 -26.789062 4.5 -26 C 4.476562 -25.21875 4.460938 -24.429688 4.453125 -23.640625 C 4.441406 -22.859375 4.445312 -22.097656 4.46875 -21.359375 C 4.488281 -20.617188 4.535156 -19.945312 4.609375 -19.34375 L 9.890625 -21.484375 C 10.210938 -21.578125 10.460938 -21.546875 10.640625 -21.390625 C 10.816406 -21.242188 10.929688 -21.050781 10.984375 -20.8125 C 11.046875 -20.582031 11.03125 -20.351562 10.9375 -20.125 C 10.851562 -19.894531 10.695312 -19.734375 10.46875 -19.640625 L 4.609375 -16.984375 C 4.609375 -16.753906 4.617188 -16.210938 4.640625 -15.359375 C 4.660156 -14.503906 4.679688 -13.5 4.703125 -12.34375 C 4.722656 -11.1875 4.742188 -9.945312 4.765625 -8.625 C 4.796875 -7.3125 4.816406 -6.070312 4.828125 -4.90625 C 4.835938 -3.75 4.847656 -2.742188 4.859375 -1.890625 C 4.867188 -1.035156 4.875 -0.492188 4.875 -0.265625 C 4.832031 0.484375 4.617188 0.859375 4.234375 0.859375 C 3.847656 0.859375 3.425781 0.675781 2.96875 0.3125 Z M 2.453125 -16.203125 "/></g></g></g><g fill="#000000" fill-opacity="1"><g transform="translate(321.024562, 139.27603)"><g><path d="M 14.421875 -0.40625 C 14.492188 -1.175781 14.550781 -2.148438 14.59375 -3.328125 C 14.644531 -4.515625 14.660156 -5.78125 14.640625 -7.125 C 14.628906 -8.46875 14.585938 -9.816406 14.515625 -11.171875 C 14.453125 -12.523438 14.347656 -13.742188 14.203125 -14.828125 C 14.054688 -15.921875 13.863281 -16.828125 13.625 -17.546875 C 13.382812 -18.265625 13.09375 -18.65625 12.75 -18.71875 C 12.019531 -18.945312 11.320312 -18.882812 10.65625 -18.53125 C 9.988281 -18.175781 9.359375 -17.617188 8.765625 -16.859375 C 8.171875 -16.097656 7.625 -15.1875 7.125 -14.125 C 6.625 -13.070312 6.160156 -11.957031 5.734375 -10.78125 C 5.316406 -9.613281 4.941406 -8.445312 4.609375 -7.28125 C 4.285156 -6.113281 4.019531 -5.039062 3.8125 -4.0625 C 3.613281 -3.082031 3.460938 -2.242188 3.359375 -1.546875 C 3.253906 -0.859375 3.210938 -0.410156 3.234375 -0.203125 C 3.078125 -0.203125 2.878906 -0.171875 2.640625 -0.109375 C 2.398438 -0.0546875 2.164062 -0.015625 1.9375 0.015625 C 1.71875 0.046875 1.519531 0.0351562 1.34375 -0.015625 C 1.175781 -0.078125 1.09375 -0.21875 1.09375 -0.4375 L 0.515625 -28.515625 C 0.515625 -28.710938 0.601562 -28.835938 0.78125 -28.890625 C 0.96875 -28.953125 1.171875 -28.972656 1.390625 -28.953125 C 1.617188 -28.929688 1.835938 -28.875 2.046875 -28.78125 C 2.253906 -28.6875 2.390625 -28.597656 2.453125 -28.515625 L 2.625 -6.953125 C 2.757812 -7.335938 2.9375 -7.960938 3.15625 -8.828125 C 3.375 -9.691406 3.648438 -10.65625 3.984375 -11.71875 C 4.328125 -12.789062 4.75 -13.890625 5.25 -15.015625 C 5.75 -16.140625 6.359375 -17.148438 7.078125 -18.046875 C 7.796875 -18.953125 8.648438 -19.664062 9.640625 -20.1875 C 10.628906 -20.707031 11.769531 -20.910156 13.0625 -20.796875 C 13.46875 -20.578125 13.835938 -20.289062 14.171875 -19.9375 C 14.503906 -19.582031 14.800781 -19.09375 15.0625 -18.46875 C 15.320312 -17.84375 15.546875 -17.050781 15.734375 -16.09375 C 15.929688 -15.144531 16.097656 -13.953125 16.234375 -12.515625 C 16.367188 -11.085938 16.472656 -9.367188 16.546875 -7.359375 C 16.628906 -5.359375 16.679688 -3.019531 16.703125 -0.34375 C 16.640625 -0.1875 16.503906 -0.0351562 16.296875 0.109375 C 16.097656 0.265625 15.878906 0.363281 15.640625 0.40625 C 15.398438 0.457031 15.164062 0.425781 14.9375 0.3125 C 14.707031 0.195312 14.535156 -0.0390625 14.421875 -0.40625 Z M 14.421875 -0.40625 "/></g></g></g><g fill="#000000" fill-opacity="1"><g transform="translate(338.27668, 139.27603)"><g><path d="M 2.046875 -9.109375 C 1.890625 -8.972656 1.609375 -8.921875 1.203125 -8.953125 C 0.804688 -8.984375 0.441406 -9.066406 0.109375 -9.203125 C -0.210938 -9.335938 -0.429688 -9.523438 -0.546875 -9.765625 C -0.660156 -10.003906 -0.523438 -10.285156 -0.140625 -10.609375 C 0.0234375 -10.742188 0.203125 -10.835938 0.390625 -10.890625 C 0.585938 -10.953125 0.78125 -11.007812 0.96875 -11.0625 C 1.164062 -11.125 1.328125 -11.210938 1.453125 -11.328125 C 1.578125 -11.441406 1.648438 -11.625 1.671875 -11.875 C 1.691406 -12.894531 1.773438 -13.9375 1.921875 -15 C 2.078125 -16.070312 2.359375 -17.023438 2.765625 -17.859375 C 3.171875 -18.703125 3.753906 -19.375 4.515625 -19.875 C 5.273438 -20.375 6.28125 -20.570312 7.53125 -20.46875 C 7.988281 -20.46875 8.5 -20.359375 9.0625 -20.140625 C 9.632812 -19.921875 10.179688 -19.632812 10.703125 -19.28125 C 11.234375 -18.925781 11.691406 -18.503906 12.078125 -18.015625 C 12.460938 -17.535156 12.695312 -17.007812 12.78125 -16.4375 C 12.945312 -16.207031 12.859375 -15.921875 12.515625 -15.578125 C 12.171875 -15.242188 11.691406 -14.863281 11.078125 -14.4375 C 10.460938 -14.019531 9.769531 -13.59375 9 -13.15625 C 8.226562 -12.726562 7.484375 -12.320312 6.765625 -11.9375 C 6.046875 -11.550781 5.414062 -11.207031 4.875 -10.90625 C 4.332031 -10.613281 3.976562 -10.410156 3.8125 -10.296875 C 3.957031 -9.410156 4.109375 -8.476562 4.265625 -7.5 C 4.421875 -6.519531 4.644531 -5.617188 4.9375 -4.796875 C 5.238281 -3.984375 5.609375 -3.3125 6.046875 -2.78125 C 6.492188 -2.25 7.054688 -1.984375 7.734375 -1.984375 C 8.734375 -1.910156 9.59375 -2.054688 10.3125 -2.421875 C 11.03125 -2.785156 11.628906 -3.257812 12.109375 -3.84375 C 12.585938 -4.4375 12.96875 -5.085938 13.25 -5.796875 C 13.53125 -6.503906 13.742188 -7.175781 13.890625 -7.8125 C 14.046875 -8.445312 14.148438 -8.984375 14.203125 -9.421875 C 14.265625 -9.867188 14.316406 -10.113281 14.359375 -10.15625 C 14.609375 -10.300781 14.890625 -10.3125 15.203125 -10.1875 C 15.523438 -10.0625 15.707031 -9.722656 15.75 -9.171875 C 15.78125 -8.285156 15.585938 -7.273438 15.171875 -6.140625 C 14.765625 -5.003906 14.203125 -3.957031 13.484375 -3 C 12.765625 -2.039062 11.910156 -1.269531 10.921875 -0.6875 C 9.941406 -0.113281 8.894531 0.078125 7.78125 -0.109375 C 6.613281 -0.128906 5.6875 -0.460938 5 -1.109375 C 4.320312 -1.753906 3.785156 -2.535156 3.390625 -3.453125 C 2.992188 -4.378906 2.703125 -5.351562 2.515625 -6.375 C 2.335938 -7.394531 2.179688 -8.304688 2.046875 -9.109375 Z M 10.984375 -16.4375 C 10.253906 -17.4375 9.515625 -18.070312 8.765625 -18.34375 C 8.015625 -18.613281 7.242188 -18.695312 6.453125 -18.59375 C 5.972656 -18.519531 5.550781 -18.296875 5.1875 -17.921875 C 4.820312 -17.546875 4.523438 -17.066406 4.296875 -16.484375 C 4.066406 -15.910156 3.90625 -15.265625 3.8125 -14.546875 C 3.726562 -13.828125 3.71875 -13.09375 3.78125 -12.34375 Z M 10.984375 -16.4375 "/></g></g></g><g fill="#000000" fill-opacity="1"><g transform="translate(159.474225, 144.244618)"><g><path d="M 1.859375 -33.5 C 2.078125 -33.613281 2.332031 -33.707031 2.625 -33.78125 C 2.914062 -33.851562 3.195312 -33.890625 3.46875 -33.890625 C 3.738281 -33.890625 4 -33.832031 4.25 -33.71875 C 4.507812 -33.613281 4.710938 -33.414062 4.859375 -33.125 C 4.859375 -30.757812 4.882812 -28.203125 4.9375 -25.453125 C 4.988281 -22.703125 5.0625 -19.914062 5.15625 -17.09375 C 5.25 -14.28125 5.332031 -11.507812 5.40625 -8.78125 C 5.476562 -6.050781 5.550781 -3.523438 5.625 -1.203125 C 5.65625 -0.648438 5.503906 -0.234375 5.171875 0.046875 C 4.847656 0.335938 4.492188 0.484375 4.109375 0.484375 C 3.734375 0.484375 3.378906 0.347656 3.046875 0.078125 C 2.722656 -0.191406 2.5625 -0.617188 2.5625 -1.203125 Z M 1.203125 -44.640625 C 1.203125 -45.109375 1.363281 -45.421875 1.6875 -45.578125 C 2.019531 -45.742188 2.382812 -45.828125 2.78125 -45.828125 C 3.582031 -45.828125 4.082031 -45.5625 4.28125 -45.03125 C 4.476562 -44.507812 4.578125 -43.90625 4.578125 -43.21875 C 4.359375 -42.78125 4.066406 -42.46875 3.703125 -42.28125 C 3.347656 -42.101562 2.976562 -42.066406 2.59375 -42.171875 C 2.207031 -42.285156 1.878906 -42.539062 1.609375 -42.9375 C 1.335938 -43.34375 1.203125 -43.910156 1.203125 -44.640625 Z M 1.203125 -44.640625 "/></g></g></g><g fill="#000000" fill-opacity="1"><g transform="translate(166.402928, 144.244618)"><g><path d="M 1.6875 -1.03125 C 1.582031 -6.050781 1.492188 -10.304688 1.421875 -13.796875 C 1.347656 -17.296875 1.289062 -20.191406 1.25 -22.484375 C 1.21875 -24.773438 1.191406 -26.566406 1.171875 -27.859375 C 1.148438 -29.148438 1.128906 -30.101562 1.109375 -30.71875 C 1.097656 -31.332031 1.09375 -31.703125 1.09375 -31.828125 C 1.09375 -31.960938 1.09375 -32.046875 1.09375 -32.078125 C 1.125 -32.410156 1.285156 -32.6875 1.578125 -32.90625 C 1.867188 -33.125 2.1875 -33.257812 2.53125 -33.3125 C 2.882812 -33.363281 3.222656 -33.316406 3.546875 -33.171875 C 3.867188 -33.023438 4.101562 -32.789062 4.25 -32.46875 L 4.421875 -19.921875 C 4.960938 -22.429688 5.84375 -24.519531 7.0625 -26.1875 C 8.28125 -27.863281 9.65625 -29.179688 11.1875 -30.140625 C 12.71875 -31.109375 14.304688 -31.738281 15.953125 -32.03125 C 17.609375 -32.320312 19.148438 -32.335938 20.578125 -32.078125 C 21.046875 -31.972656 21.394531 -31.773438 21.625 -31.484375 C 21.863281 -31.191406 21.992188 -30.875 22.015625 -30.53125 C 22.035156 -30.1875 21.941406 -29.859375 21.734375 -29.546875 C 21.535156 -29.234375 21.273438 -29.003906 20.953125 -28.859375 C 19.316406 -28.972656 17.78125 -28.835938 16.34375 -28.453125 C 14.90625 -28.078125 13.59375 -27.515625 12.40625 -26.765625 C 11.226562 -26.015625 10.191406 -25.128906 9.296875 -24.109375 C 8.410156 -23.097656 7.710938 -22.03125 7.203125 -20.90625 C 6.441406 -19.257812 5.921875 -17.535156 5.640625 -15.734375 C 5.367188 -13.941406 5.207031 -12.148438 5.15625 -10.359375 C 5.101562 -8.578125 5.101562 -6.882812 5.15625 -5.28125 C 5.207031 -3.6875 5.21875 -2.289062 5.1875 -1.09375 C 5.144531 -0.6875 4.96875 -0.382812 4.65625 -0.1875 C 4.351562 0.0078125 4.007812 0.113281 3.625 0.125 C 3.25 0.144531 2.867188 0.0546875 2.484375 -0.140625 C 2.097656 -0.335938 1.832031 -0.632812 1.6875 -1.03125 Z M 1.6875 -1.03125 "/></g></g></g><g fill="#000000" fill-opacity="1"><g transform="translate(188.989409, 144.244618)"><g><path d="M 1.96875 -45.5 C 2.1875 -45.644531 2.410156 -45.800781 2.640625 -45.96875 C 2.878906 -46.132812 3.125 -46.242188 3.375 -46.296875 C 3.632812 -46.347656 3.863281 -46.316406 4.0625 -46.203125 C 4.257812 -46.097656 4.429688 -45.863281 4.578125 -45.5 L 4.90625 -0.484375 C 4.726562 -0.128906 4.492188 0.109375 4.203125 0.234375 C 3.910156 0.367188 3.617188 0.40625 3.328125 0.34375 C 3.035156 0.289062 2.769531 0.175781 2.53125 0 C 2.300781 -0.175781 2.148438 -0.394531 2.078125 -0.65625 Z M 1.96875 -45.5 "/></g></g></g><g fill="#000000" fill-opacity="1"><g transform="translate(195.918112, 144.244618)"><g><path d="M 2.515625 -3.921875 C 3.203125 -3.378906 4.046875 -3.085938 5.046875 -3.046875 C 6.046875 -3.015625 7.097656 -3.148438 8.203125 -3.453125 C 9.316406 -3.765625 10.445312 -4.222656 11.59375 -4.828125 C 12.738281 -5.429688 13.789062 -6.09375 14.75 -6.8125 C 15.71875 -7.539062 16.554688 -8.316406 17.265625 -9.140625 C 17.972656 -9.960938 18.453125 -10.742188 18.703125 -11.484375 C 18.960938 -12.234375 18.945312 -12.914062 18.65625 -13.53125 C 18.363281 -14.144531 17.710938 -14.632812 16.703125 -15 C 14.847656 -14.5625 12.988281 -14.21875 11.125 -13.96875 C 9.269531 -13.71875 7.601562 -13.71875 6.125 -13.96875 C 4.65625 -14.21875 3.46875 -14.816406 2.5625 -15.765625 C 1.65625 -16.710938 1.238281 -18.171875 1.3125 -20.140625 C 1.414062 -22.023438 1.929688 -23.796875 2.859375 -25.453125 C 3.785156 -27.109375 4.96875 -28.519531 6.40625 -29.6875 C 7.84375 -30.851562 9.441406 -31.742188 11.203125 -32.359375 C 12.972656 -32.972656 14.769531 -33.226562 16.59375 -33.125 C 16.957031 -33.082031 17.289062 -33.050781 17.59375 -33.03125 C 17.90625 -33.019531 18.1875 -32.957031 18.4375 -32.84375 C 18.695312 -32.738281 18.890625 -32.578125 19.015625 -32.359375 C 19.140625 -32.140625 19.1875 -31.8125 19.15625 -31.375 C 19.113281 -30.832031 18.910156 -30.394531 18.546875 -30.0625 C 18.179688 -29.738281 17.691406 -29.613281 17.078125 -29.6875 C 14.929688 -30.125 13.003906 -30.03125 11.296875 -29.40625 C 9.585938 -28.789062 8.164062 -27.925781 7.03125 -26.8125 C 5.90625 -25.707031 5.101562 -24.460938 4.625 -23.078125 C 4.15625 -21.691406 4.085938 -20.4375 4.421875 -19.3125 C 5.109375 -18.007812 6.003906 -17.179688 7.109375 -16.828125 C 8.222656 -16.484375 9.40625 -16.363281 10.65625 -16.46875 C 11.914062 -16.582031 13.203125 -16.773438 14.515625 -17.046875 C 15.828125 -17.328125 17.007812 -17.421875 18.0625 -17.328125 C 19.113281 -17.234375 19.984375 -16.832031 20.671875 -16.125 C 21.367188 -15.414062 21.753906 -14.113281 21.828125 -12.21875 C 21.785156 -11.019531 21.382812 -9.863281 20.625 -8.75 C 19.863281 -7.644531 18.890625 -6.609375 17.703125 -5.640625 C 16.523438 -4.679688 15.207031 -3.8125 13.75 -3.03125 C 12.289062 -2.25 10.84375 -1.601562 9.40625 -1.09375 C 7.96875 -0.582031 6.625 -0.234375 5.375 -0.046875 C 4.125 0.128906 3.113281 0.109375 2.34375 -0.109375 C 1.507812 -0.835938 1.070312 -1.554688 1.03125 -2.265625 C 1 -2.972656 1.492188 -3.523438 2.515625 -3.921875 Z M 2.515625 -3.921875 "/></g></g></g><g fill="#000000" fill-opacity="1"><g transform="translate(247.517666, 212.39553)"><g><path d="M 19.96875 -0.546875 C 19.457031 -1.304688 19.140625 -2.304688 19.015625 -3.546875 C 18.890625 -4.785156 18.816406 -6.085938 18.796875 -7.453125 C 18.773438 -8.816406 18.773438 -10.160156 18.796875 -11.484375 C 18.816406 -12.816406 18.71875 -13.953125 18.5 -14.890625 C 16.789062 -11.148438 15.179688 -8.234375 13.671875 -6.140625 C 12.160156 -4.046875 10.773438 -2.550781 9.515625 -1.65625 C 8.265625 -0.769531 7.128906 -0.367188 6.109375 -0.453125 C 5.085938 -0.546875 4.222656 -0.910156 3.515625 -1.546875 C 2.804688 -2.191406 2.25 -2.976562 1.84375 -3.90625 C 1.445312 -4.832031 1.234375 -5.710938 1.203125 -6.546875 C 0.941406 -7.929688 0.929688 -9.59375 1.171875 -11.53125 C 1.410156 -13.476562 1.828125 -15.488281 2.421875 -17.5625 C 3.023438 -19.644531 3.789062 -21.675781 4.71875 -23.65625 C 5.644531 -25.632812 6.695312 -27.351562 7.875 -28.8125 C 9.0625 -30.269531 10.328125 -31.351562 11.671875 -32.0625 C 13.023438 -32.769531 14.425781 -32.882812 15.875 -32.40625 C 16.601562 -32.476562 17.210938 -32.453125 17.703125 -32.328125 C 18.191406 -32.203125 18.597656 -31.9375 18.921875 -31.53125 C 19.253906 -31.132812 19.492188 -30.582031 19.640625 -29.875 C 19.785156 -29.164062 19.894531 -28.265625 19.96875 -27.171875 C 19.894531 -23.640625 19.992188 -20.632812 20.265625 -18.15625 C 20.546875 -15.6875 20.863281 -13.503906 21.21875 -11.609375 C 21.582031 -9.722656 21.9375 -8.015625 22.28125 -6.484375 C 22.632812 -4.960938 22.847656 -3.382812 22.921875 -1.75 C 22.921875 -1.164062 22.773438 -0.71875 22.484375 -0.40625 C 22.191406 -0.101562 21.863281 0.09375 21.5 0.1875 C 21.132812 0.28125 20.796875 0.253906 20.484375 0.109375 C 20.179688 -0.0351562 20.007812 -0.253906 19.96875 -0.546875 Z M 16.8125 -28.09375 C 15.9375 -29.257812 14.988281 -29.75 13.96875 -29.5625 C 12.945312 -29.382812 11.9375 -28.757812 10.9375 -27.6875 C 9.9375 -26.613281 8.984375 -25.210938 8.078125 -23.484375 C 7.171875 -21.765625 6.390625 -19.921875 5.734375 -17.953125 C 5.078125 -15.984375 4.59375 -14.023438 4.28125 -12.078125 C 3.96875 -10.140625 3.90625 -8.425781 4.09375 -6.9375 C 4.601562 -5.289062 5.21875 -4.304688 5.9375 -3.984375 C 6.664062 -3.660156 7.445312 -3.78125 8.28125 -4.34375 C 9.125 -4.90625 9.984375 -5.800781 10.859375 -7.03125 C 11.734375 -8.269531 12.566406 -9.609375 13.359375 -11.046875 C 14.160156 -12.484375 14.878906 -13.921875 15.515625 -15.359375 C 16.160156 -16.796875 16.679688 -18.003906 17.078125 -18.984375 Z M 16.8125 -28.09375 "/></g></g></g><g fill="#000000" fill-opacity="1"><g transform="translate(271.522621, 212.39553)"><g><path d="M 1.09375 -32.515625 C 1.125 -32.878906 1.265625 -33.171875 1.515625 -33.390625 C 1.773438 -33.609375 2.066406 -33.742188 2.390625 -33.796875 C 2.722656 -33.859375 3.050781 -33.820312 3.375 -33.6875 C 3.707031 -33.5625 3.984375 -33.375 4.203125 -33.125 L 4.03125 -11.296875 C 4.726562 -13.910156 5.359375 -16.5 5.921875 -19.0625 C 6.484375 -21.632812 7.179688 -23.960938 8.015625 -26.046875 C 8.859375 -28.140625 9.914062 -29.867188 11.1875 -31.234375 C 12.457031 -32.597656 14.148438 -33.375 16.265625 -33.5625 C 17.390625 -33.664062 18.367188 -33.328125 19.203125 -32.546875 C 20.046875 -31.765625 20.765625 -30.703125 21.359375 -29.359375 C 21.960938 -28.015625 22.460938 -26.441406 22.859375 -24.640625 C 23.265625 -22.835938 23.582031 -20.960938 23.8125 -19.015625 C 24.050781 -17.066406 24.222656 -15.109375 24.328125 -13.140625 C 24.441406 -11.179688 24.515625 -9.363281 24.546875 -7.6875 C 24.585938 -6.019531 24.597656 -4.546875 24.578125 -3.265625 C 24.554688 -1.992188 24.53125 -1.066406 24.5 -0.484375 C 24.25 0.128906 23.800781 0.535156 23.15625 0.734375 C 22.519531 0.929688 21.945312 0.671875 21.4375 -0.046875 C 21.40625 -0.742188 21.390625 -1.9375 21.390625 -3.625 C 21.390625 -5.320312 21.359375 -7.257812 21.296875 -9.4375 C 21.242188 -11.625 21.132812 -13.90625 20.96875 -16.28125 C 20.8125 -18.664062 20.539062 -20.867188 20.15625 -22.890625 C 19.78125 -24.910156 19.253906 -26.601562 18.578125 -27.96875 C 17.898438 -29.332031 17.035156 -30.101562 15.984375 -30.28125 C 15.078125 -30.425781 14.195312 -29.9375 13.34375 -28.8125 C 12.488281 -27.6875 11.671875 -26.191406 10.890625 -24.328125 C 10.109375 -22.472656 9.378906 -20.378906 8.703125 -18.046875 C 8.023438 -15.722656 7.421875 -13.429688 6.890625 -11.171875 C 6.367188 -8.921875 5.925781 -6.847656 5.5625 -4.953125 C 5.195312 -3.066406 4.960938 -1.613281 4.859375 -0.59375 C 4.742188 -0.300781 4.519531 -0.0664062 4.1875 0.109375 C 3.863281 0.285156 3.507812 0.382812 3.125 0.40625 C 2.75 0.425781 2.367188 0.363281 1.984375 0.21875 C 1.609375 0.0703125 1.328125 -0.195312 1.140625 -0.59375 Z M 1.09375 -32.515625 "/></g></g></g><g fill="#000000" fill-opacity="1"><g transform="translate(296.946051, 212.39553)"><g><path d="M 4.640625 14.125 C 7.328125 13.988281 9.613281 13.414062 11.5 12.40625 C 13.394531 11.40625 14.960938 10.085938 16.203125 8.453125 C 17.441406 6.816406 18.367188 4.90625 18.984375 2.71875 C 19.609375 0.539062 20.007812 -1.816406 20.1875 -4.359375 C 20.300781 -6.003906 20.363281 -7.453125 20.375 -8.703125 C 20.394531 -9.953125 20.378906 -11.097656 20.328125 -12.140625 C 20.273438 -13.179688 20.210938 -14.171875 20.140625 -15.109375 C 20.066406 -16.054688 19.992188 -17.039062 19.921875 -18.0625 C 19.847656 -19.082031 19.78125 -20.179688 19.71875 -21.359375 C 19.664062 -22.546875 19.640625 -23.898438 19.640625 -25.421875 C 17.898438 -20.296875 16.265625 -16.164062 14.734375 -13.03125 C 13.203125 -9.90625 11.769531 -7.539062 10.4375 -5.9375 C 9.113281 -4.34375 7.914062 -3.378906 6.84375 -3.046875 C 5.769531 -2.722656 4.832031 -2.785156 4.03125 -3.234375 C 3.238281 -3.691406 2.585938 -4.4375 2.078125 -5.46875 C 1.566406 -6.507812 1.21875 -7.578125 1.03125 -8.671875 C 1.101562 -10.492188 1.445312 -12.503906 2.0625 -14.703125 C 2.6875 -16.898438 3.507812 -19.0625 4.53125 -21.1875 C 5.550781 -23.320312 6.734375 -25.304688 8.078125 -27.140625 C 9.421875 -28.984375 10.875 -30.445312 12.4375 -31.53125 C 14 -32.625 15.609375 -33.242188 17.265625 -33.390625 C 18.921875 -33.535156 20.585938 -32.972656 22.265625 -31.703125 C 22.296875 -31.734375 22.335938 -31.332031 22.390625 -30.5 C 22.453125 -29.664062 22.523438 -28.535156 22.609375 -27.109375 C 22.703125 -25.691406 22.796875 -24.046875 22.890625 -22.171875 C 22.984375 -20.304688 23.082031 -18.351562 23.1875 -16.3125 C 23.300781 -14.28125 23.398438 -12.242188 23.484375 -10.203125 C 23.578125 -8.160156 23.679688 -6.269531 23.796875 -4.53125 C 23.828125 -1.144531 23.316406 1.960938 22.265625 4.796875 C 21.210938 7.640625 19.800781 10.039062 18.03125 12 C 16.269531 13.96875 14.25 15.40625 11.96875 16.3125 C 9.695312 17.21875 7.363281 17.4375 4.96875 16.96875 C 4.851562 16.96875 4.675781 16.894531 4.4375 16.75 C 4.207031 16.601562 4.023438 16.398438 3.890625 16.140625 C 3.765625 15.890625 3.738281 15.59375 3.8125 15.25 C 3.882812 14.90625 4.160156 14.53125 4.640625 14.125 Z M 3.921875 -8.625 C 4.328125 -7.3125 4.859375 -6.664062 5.515625 -6.6875 C 6.171875 -6.707031 6.90625 -7.179688 7.71875 -8.109375 C 8.539062 -9.035156 9.40625 -10.296875 10.3125 -11.890625 C 11.21875 -13.492188 12.132812 -15.25 13.0625 -17.15625 C 13.988281 -19.070312 14.890625 -21.019531 15.765625 -23 C 16.640625 -24.976562 17.457031 -26.804688 18.21875 -28.484375 C 18.21875 -28.921875 18.117188 -29.328125 17.921875 -29.703125 C 17.722656 -30.085938 17.28125 -30.207031 16.59375 -30.0625 C 15.457031 -29.84375 14.351562 -29.285156 13.28125 -28.390625 C 12.207031 -27.503906 11.195312 -26.429688 10.25 -25.171875 C 9.3125 -23.921875 8.453125 -22.539062 7.671875 -21.03125 C 6.890625 -19.519531 6.222656 -18.007812 5.671875 -16.5 C 5.128906 -14.988281 4.703125 -13.539062 4.390625 -12.15625 C 4.078125 -10.78125 3.921875 -9.601562 3.921875 -8.625 Z M 3.921875 -8.625 "/></g></g></g></svg>